<svg xmlns="http://www.w3.org/2000/svg" fill="none" viewBox="0 0 110 37">
  <path fill="#283D36" d="m21.35 28.37-3.04-6.9H7.7l-3.12 6.9H0L12.98.52l12.96 27.87-4.59-.01ZM9.3 17.85h7.46l-2.74-6.11-.5-1.34-.5-1.7a11.33 11.33 0 0 1-.48 1.65c-.13.47-.3.93-.5 1.39L9.3 17.85Zm35.16 9.45c0 3.37-.67 5.76-2.03 7.15-1.35 1.4-3.63 2.09-6.84 2.09-2.4 0-4.31-.5-5.75-1.51A4.68 4.68 0 0 1 27.68 31l4.26-.02c0 .34.1.67.27.96.2.3.47.56.78.74.83.44 1.75.64 2.69.59 1.69 0 2.91-.37 3.67-1.12.76-.75 1.14-1.99 1.14-3.71v-2.33a6.66 6.66 0 0 1-5.73 2.99 7.15 7.15 0 0 1-5.8-2.53c-1.4-1.69-2.1-3.98-2.1-6.9 0-2.77.71-5 2.15-6.7a7.63 7.63 0 0 1 9.27-1.68 5.3 5.3 0 0 1 2.21 2.56v-2.84h3.97v16.27Zm-3.86-7.65c0-1.78-.42-3.18-1.25-4.19a4.3 4.3 0 0 0-3.5-1.51 4.36 4.36 0 0 0-3.54 1.56c-.86 1.04-1.3 2.47-1.3 4.29 0 1.83.42 3.25 1.25 4.26a4.69 4.69 0 0 0 7-.12 6.53 6.53 0 0 0 1.34-4.29m13.33-5.86c.32-.99.9-1.86 1.68-2.54a4.06 4.06 0 0 1 2.62-.83c.55 0 1.1.06 1.65.2.56.12 1.1.32 1.6.58l-1.42 3.37a3.65 3.65 0 0 0-1.1-.52c-.44-.13-.89-.2-1.34-.2a2.98 2.98 0 0 0-2.82 1.6c-.58 1.05-.87 2.82-.87 5.31v7.62h-3.98v-17.4h3.98v2.8Zm9.48-10.27a2.36 2.36 0 0 1 .75-1.73 2.5 2.5 0 0 1 3.52-.04 2.38 2.38 0 0 1 .71 1.77 2.46 2.46 0 0 1-.71 1.76 2.34 2.34 0 0 1-1.76.74 2.4 2.4 0 0 1-1.77-.75 2.42 2.42 0 0 1-.74-1.76m19.66.01a2.36 2.36 0 0 1 .75-1.73 2.5 2.5 0 0 1 3.52-.04 2.38 2.38 0 0 1 .71 1.77 2.46 2.46 0 0 1-.71 1.76 2.34 2.34 0 0 1-1.76.74 2.55 2.55 0 0 1-2.5-2.5Zm.53 7.5h3.97v17.35H83.6V11.02Zm9.65 17.35V11.02h3.73v2.84a7.43 7.43 0 0 1 2.78-2.6 8.47 8.47 0 0 1 3.94-.84 8.04 8.04 0 0 1 3.3.61 4.8 4.8 0 0 1 2.8 3.49c.08.42.13.84.15 1.27.03.56.05 1.24.05 2.06v10.52h-4v-8.91c0-2.27-.28-3.78-.84-4.54-.55-.76-1.54-1.13-2.95-1.13-.86-.02-1.7.15-2.49.5a4 4 0 0 0-2.31 3.04 19.4 19.4 0 0 0-.18 3.14v7.9h-3.98ZM67.91 11.02v8.2a8.93 8.93 0 0 1-3.97-.4v-7.8h3.97Zm0 13.78v3.58h-3.97V24.7c1.31.22 2.65.25 3.97.09Zm5.86-1.46v5.04h3.97V21.3c-1.24.82-2.57 1.5-3.97 2.03Zm0-23.34v17.49c1.9-.99 3.32-2.24 3.94-3.46l.03-.05V0h-3.97Z"/>
  <path fill="#F9C442" d="M80.98 14.85c-.25-.79-.97-1.38-2.02-1.75.07.4.02.8-.12 1.17-.25.63-.62 1.2-1.1 1.68a12.9 12.9 0 0 1-3.97 2.7 19 19 0 0 1-5.85 1.65c-1.33.18-2.68.1-3.98-.23a3.66 3.66 0 0 1-1.65-.92 1.98 1.98 0 0 1-.47-.77l-.05-.15c-.96 1.11-1.38 2.23-1.07 3.19.03.1.07.18.12.27.45.92 1.58 1.51 3.12 1.78 1.32.2 2.66.21 3.98.04A22.84 22.84 0 0 0 73.77 22c1.4-.55 2.73-1.25 3.98-2.08 1.9-1.31 3.13-2.78 3.31-4.08a2.2 2.2 0 0 0-.07-.99"/>
</svg>
